<mxfile host="65bd71144e">
    <diagram id="zgqwE2MXXdKPY1m1hXPM" name="PÃ¡gina-1">
        <mxGraphModel dx="1459" dy="409" grid="1" gridSize="10" guides="1" tooltips="1" connect="1" arrows="1" fold="1" page="1" pageScale="1" pageWidth="827" pageHeight="1169" math="0" shadow="0">
            <root>
                <mxCell id="0"/>
                <mxCell id="1" parent="0"/>
                <mxCell id="4" style="edgeStyle=none;html=1;exitX=0.5;exitY=1;exitDx=0;exitDy=0;" edge="1" parent="1" source="2" target="3">
                    <mxGeometry relative="1" as="geometry"/>
                </mxCell>
                <mxCell id="2" value="Inicio" style="ellipse;whiteSpace=wrap;html=1;fillColor=#008a00;fontColor=#ffffff;strokeColor=#005700;" vertex="1" parent="1">
                    <mxGeometry x="260" y="100" width="120" height="80" as="geometry"/>
                </mxCell>
                <mxCell id="6" style="edgeStyle=none;html=1;exitX=0.5;exitY=1;exitDx=0;exitDy=0;entryX=0.5;entryY=0;entryDx=0;entryDy=0;" edge="1" parent="1" source="3" target="5">
                    <mxGeometry relative="1" as="geometry"/>
                </mxCell>
                <mxCell id="3" value="Peso,altura" style="shape=parallelogram;perimeter=parallelogramPerimeter;whiteSpace=wrap;html=1;fixedSize=1;fillColor=#0050ef;fontColor=#ffffff;strokeColor=#001DBC;" vertex="1" parent="1">
                    <mxGeometry x="260" y="240" width="120" height="60" as="geometry"/>
                </mxCell>
                <mxCell id="7" style="edgeStyle=none;html=1;exitX=0.5;exitY=1;exitDx=0;exitDy=0;" edge="1" parent="1" source="5">
                    <mxGeometry relative="1" as="geometry">
                        <mxPoint x="320" y="480" as="targetPoint"/>
                    </mxGeometry>
                </mxCell>
                <mxCell id="5" value="IMC=Peso*altura**2" style="rounded=0;whiteSpace=wrap;html=1;fillColor=#6a00ff;fontColor=#ffffff;strokeColor=#3700CC;" vertex="1" parent="1">
                    <mxGeometry x="260" y="350" width="120" height="60" as="geometry"/>
                </mxCell>
                <mxCell id="10" style="edgeStyle=none;html=1;exitX=1;exitY=0.5;exitDx=0;exitDy=0;entryX=0.5;entryY=0;entryDx=0;entryDy=0;" edge="1" parent="1" source="8" target="9">
                    <mxGeometry relative="1" as="geometry">
                        <Array as="points">
                            <mxPoint x="500" y="540"/>
                        </Array>
                    </mxGeometry>
                </mxCell>
                <mxCell id="11" style="edgeStyle=none;html=1;exitX=0;exitY=0.5;exitDx=0;exitDy=0;" edge="1" parent="1" source="8">
                    <mxGeometry relative="1" as="geometry">
                        <mxPoint x="160" y="600" as="targetPoint"/>
                        <Array as="points">
                            <mxPoint x="160" y="540"/>
                        </Array>
                    </mxGeometry>
                </mxCell>
                <mxCell id="8" value="IMC&amp;lt;16" style="rhombus;whiteSpace=wrap;html=1;fillColor=#1ba1e2;fontColor=#ffffff;strokeColor=#006EAF;" vertex="1" parent="1">
                    <mxGeometry x="260" y="480" width="120" height="120" as="geometry"/>
                </mxCell>
                <mxCell id="9" value="Criterio de ingreso&lt;br&gt;al Hospital" style="shape=document;whiteSpace=wrap;html=1;boundedLbl=1;fillColor=#a20025;fontColor=#ffffff;strokeColor=#6F0000;" vertex="1" parent="1">
                    <mxGeometry x="440" y="600" width="120" height="80" as="geometry"/>
                </mxCell>
                <mxCell id="14" style="edgeStyle=none;html=1;exitX=1;exitY=0.5;exitDx=0;exitDy=0;" edge="1" parent="1" source="13">
                    <mxGeometry relative="1" as="geometry">
                        <mxPoint x="300" y="720" as="targetPoint"/>
                        <Array as="points">
                            <mxPoint x="300" y="660"/>
                        </Array>
                    </mxGeometry>
                </mxCell>
                <mxCell id="16" style="edgeStyle=none;html=1;exitX=0;exitY=0.5;exitDx=0;exitDy=0;entryX=0.5;entryY=0;entryDx=0;entryDy=0;" edge="1" parent="1" source="13" target="17">
                    <mxGeometry relative="1" as="geometry">
                        <mxPoint x="20" y="720" as="targetPoint"/>
                        <Array as="points">
                            <mxPoint x="-10" y="660"/>
                        </Array>
                    </mxGeometry>
                </mxCell>
                <mxCell id="13" value="IMC&amp;gt;16 y &amp;lt;17&amp;nbsp;" style="rhombus;whiteSpace=wrap;html=1;fillColor=#1ba1e2;fontColor=#ffffff;strokeColor=#006EAF;" vertex="1" parent="1">
                    <mxGeometry x="100" y="600" width="120" height="120" as="geometry"/>
                </mxCell>
                <mxCell id="15" value="Infrapeso" style="shape=document;whiteSpace=wrap;html=1;boundedLbl=1;fillColor=#a20025;fontColor=#ffffff;strokeColor=#6F0000;" vertex="1" parent="1">
                    <mxGeometry x="240" y="720" width="120" height="80" as="geometry"/>
                </mxCell>
                <mxCell id="19" style="edgeStyle=none;html=1;exitX=1;exitY=0.5;exitDx=0;exitDy=0;entryX=0.5;entryY=0;entryDx=0;entryDy=0;" edge="1" parent="1" source="17" target="18">
                    <mxGeometry relative="1" as="geometry">
                        <mxPoint x="130" y="810" as="targetPoint"/>
                        <Array as="points">
                            <mxPoint x="120" y="780"/>
                        </Array>
                    </mxGeometry>
                </mxCell>
                <mxCell id="20" style="edgeStyle=none;html=1;exitX=0;exitY=0.5;exitDx=0;exitDy=0;" edge="1" parent="1" source="17">
                    <mxGeometry relative="1" as="geometry">
                        <mxPoint x="-160" y="840" as="targetPoint"/>
                        <Array as="points">
                            <mxPoint x="-160" y="780"/>
                        </Array>
                    </mxGeometry>
                </mxCell>
                <mxCell id="17" value="IMC&amp;gt;17 y &amp;lt;18" style="rhombus;whiteSpace=wrap;html=1;fillColor=#1ba1e2;fontColor=#ffffff;strokeColor=#006EAF;" vertex="1" parent="1">
                    <mxGeometry x="-70" y="720" width="120" height="120" as="geometry"/>
                </mxCell>
                <mxCell id="18" value="Bajo peso" style="shape=document;whiteSpace=wrap;html=1;boundedLbl=1;fillColor=#a20025;fontColor=#ffffff;strokeColor=#6F0000;" vertex="1" parent="1">
                    <mxGeometry x="60" y="830" width="120" height="80" as="geometry"/>
                </mxCell>
                <mxCell id="22" style="edgeStyle=none;html=1;exitX=1;exitY=0.5;exitDx=0;exitDy=0;entryX=0.5;entryY=0;entryDx=0;entryDy=0;" edge="1" parent="1" source="21" target="23">
                    <mxGeometry relative="1" as="geometry">
                        <mxPoint x="-40" y="960" as="targetPoint"/>
                        <Array as="points">
                            <mxPoint x="-40" y="900"/>
                            <mxPoint x="-20" y="900"/>
                        </Array>
                    </mxGeometry>
                </mxCell>
                <mxCell id="24" style="edgeStyle=none;html=1;exitX=0;exitY=0.5;exitDx=0;exitDy=0;" edge="1" parent="1" source="21">
                    <mxGeometry relative="1" as="geometry">
                        <mxPoint x="-300" y="960" as="targetPoint"/>
                        <Array as="points">
                            <mxPoint x="-300" y="900"/>
                        </Array>
                    </mxGeometry>
                </mxCell>
                <mxCell id="21" value="IMC&amp;gt;18 y &amp;lt;25" style="rhombus;whiteSpace=wrap;html=1;fillColor=#1ba1e2;fontColor=#ffffff;strokeColor=#006EAF;" vertex="1" parent="1">
                    <mxGeometry x="-220" y="840" width="120" height="120" as="geometry"/>
                </mxCell>
                <mxCell id="23" value="Peso Nornal&lt;br&gt;(Saludable)" style="shape=document;whiteSpace=wrap;html=1;boundedLbl=1;fillColor=#a20025;fontColor=#ffffff;strokeColor=#6F0000;" vertex="1" parent="1">
                    <mxGeometry x="-80" y="960" width="120" height="80" as="geometry"/>
                </mxCell>
                <mxCell id="26" style="edgeStyle=none;html=1;exitX=1;exitY=0.5;exitDx=0;exitDy=0;" edge="1" parent="1" source="25">
                    <mxGeometry relative="1" as="geometry">
                        <mxPoint x="-180" y="1080" as="targetPoint"/>
                        <Array as="points">
                            <mxPoint x="-180" y="1020"/>
                        </Array>
                    </mxGeometry>
                </mxCell>
                <mxCell id="28" style="edgeStyle=none;html=1;exitX=0;exitY=0.5;exitDx=0;exitDy=0;" edge="1" parent="1" source="25">
                    <mxGeometry relative="1" as="geometry">
                        <mxPoint x="-440" y="1080" as="targetPoint"/>
                        <Array as="points">
                            <mxPoint x="-440" y="1020"/>
                        </Array>
                    </mxGeometry>
                </mxCell>
                <mxCell id="25" value="IMC&amp;gt; 25 y &amp;lt; 30" style="rhombus;whiteSpace=wrap;html=1;fillColor=#1ba1e2;fontColor=#ffffff;strokeColor=#006EAF;" vertex="1" parent="1">
                    <mxGeometry x="-360" y="960" width="120" height="120" as="geometry"/>
                </mxCell>
                <mxCell id="27" value="Sobre peso&lt;br&gt;(obesidad de grado I)" style="shape=document;whiteSpace=wrap;html=1;boundedLbl=1;fillColor=#a20025;fontColor=#ffffff;strokeColor=#6F0000;" vertex="1" parent="1">
                    <mxGeometry x="-240" y="1080" width="120" height="80" as="geometry"/>
                </mxCell>
                <mxCell id="30" style="edgeStyle=none;html=1;exitX=1;exitY=0.5;exitDx=0;exitDy=0;" edge="1" parent="1" source="29">
                    <mxGeometry relative="1" as="geometry">
                        <mxPoint x="-320" y="1200" as="targetPoint"/>
                        <Array as="points">
                            <mxPoint x="-320" y="1140"/>
                        </Array>
                    </mxGeometry>
                </mxCell>
                <mxCell id="32" style="edgeStyle=none;html=1;exitX=0;exitY=0.5;exitDx=0;exitDy=0;" edge="1" parent="1" source="29">
                    <mxGeometry relative="1" as="geometry">
                        <mxPoint x="-560" y="1200" as="targetPoint"/>
                        <Array as="points">
                            <mxPoint x="-560" y="1140"/>
                        </Array>
                    </mxGeometry>
                </mxCell>
                <mxCell id="29" value="IMC&amp;gt; 30 y &amp;lt; 35" style="rhombus;whiteSpace=wrap;html=1;fillColor=#1ba1e2;fontColor=#ffffff;strokeColor=#006EAF;" vertex="1" parent="1">
                    <mxGeometry x="-500" y="1080" width="120" height="120" as="geometry"/>
                </mxCell>
                <mxCell id="31" value="Sobrepeso Cronico&lt;br&gt;(obesidad de grado II)" style="shape=document;whiteSpace=wrap;html=1;boundedLbl=1;fillColor=#a20025;fontColor=#ffffff;strokeColor=#6F0000;" vertex="1" parent="1">
                    <mxGeometry x="-380" y="1200" width="140" height="80" as="geometry"/>
                </mxCell>
                <mxCell id="35" style="edgeStyle=none;html=1;exitX=1;exitY=0.5;exitDx=0;exitDy=0;entryX=0.429;entryY=0;entryDx=0;entryDy=0;entryPerimeter=0;" edge="1" parent="1" source="33" target="34">
                    <mxGeometry relative="1" as="geometry">
                        <Array as="points">
                            <mxPoint x="-440" y="1260"/>
                        </Array>
                    </mxGeometry>
                </mxCell>
                <mxCell id="36" style="edgeStyle=none;html=1;exitX=0;exitY=0.5;exitDx=0;exitDy=0;" edge="1" parent="1" source="33" target="37">
                    <mxGeometry relative="1" as="geometry">
                        <mxPoint x="-680" y="1320" as="targetPoint"/>
                        <Array as="points">
                            <mxPoint x="-730" y="1260"/>
                        </Array>
                    </mxGeometry>
                </mxCell>
                <mxCell id="33" value="IMC&amp;gt; 35 y &amp;lt; 40" style="rhombus;whiteSpace=wrap;html=1;fillColor=#1ba1e2;fontColor=#ffffff;strokeColor=#006EAF;" vertex="1" parent="1">
                    <mxGeometry x="-620" y="1200" width="120" height="120" as="geometry"/>
                </mxCell>
                <mxCell id="34" value="Obecidad Premorbida&lt;br&gt;(obesidad de grado III)" style="shape=document;whiteSpace=wrap;html=1;boundedLbl=1;fillColor=#a20025;fontColor=#ffffff;strokeColor=#6F0000;" vertex="1" parent="1">
                    <mxGeometry x="-500" y="1320" width="140" height="80" as="geometry"/>
                </mxCell>
                <mxCell id="38" style="edgeStyle=none;html=1;exitX=1;exitY=0.5;exitDx=0;exitDy=0;entryX=0.3;entryY=-0.037;entryDx=0;entryDy=0;entryPerimeter=0;" edge="1" parent="1" source="37" target="39">
                    <mxGeometry relative="1" as="geometry">
                        <mxPoint x="-570" y="1440" as="targetPoint"/>
                        <Array as="points">
                            <mxPoint x="-560" y="1380"/>
                        </Array>
                    </mxGeometry>
                </mxCell>
                <mxCell id="40" style="edgeStyle=none;html=1;exitX=0.5;exitY=1;exitDx=0;exitDy=0;endArrow=none;endFill=0;" edge="1" parent="1" source="37">
                    <mxGeometry relative="1" as="geometry">
                        <mxPoint x="-650" y="1600" as="targetPoint"/>
                        <Array as="points">
                            <mxPoint x="-730" y="1600"/>
                        </Array>
                    </mxGeometry>
                </mxCell>
                <mxCell id="37" value="IMC&amp;gt; 40" style="rhombus;whiteSpace=wrap;html=1;fillColor=#1ba1e2;fontColor=#ffffff;strokeColor=#006EAF;" vertex="1" parent="1">
                    <mxGeometry x="-790" y="1320" width="120" height="120" as="geometry"/>
                </mxCell>
                <mxCell id="39" value="Obecidad Morbida&lt;br&gt;(obesidad de grado IV)" style="shape=document;whiteSpace=wrap;html=1;boundedLbl=1;fillColor=#a20025;fontColor=#ffffff;strokeColor=#6F0000;" vertex="1" parent="1">
                    <mxGeometry x="-600" y="1440" width="140" height="80" as="geometry"/>
                </mxCell>
                <mxCell id="41" value="" style="endArrow=none;html=1;endFill=0;" edge="1" parent="1">
                    <mxGeometry width="50" height="50" relative="1" as="geometry">
                        <mxPoint x="-530" y="1510" as="sourcePoint"/>
                        <mxPoint x="-650" y="1600" as="targetPoint"/>
                        <Array as="points">
                            <mxPoint x="-530" y="1600"/>
                        </Array>
                    </mxGeometry>
                </mxCell>
                <mxCell id="42" value="" style="endArrow=classic;html=1;" edge="1" parent="1">
                    <mxGeometry width="50" height="50" relative="1" as="geometry">
                        <mxPoint x="-640" y="1600" as="sourcePoint"/>
                        <mxPoint x="-640" y="1680" as="targetPoint"/>
                    </mxGeometry>
                </mxCell>
                <mxCell id="43" value="Estado de Salud" style="shape=document;whiteSpace=wrap;html=1;boundedLbl=1;fillColor=#a20025;fontColor=#ffffff;strokeColor=#6F0000;" vertex="1" parent="1">
                    <mxGeometry x="-700" y="1680" width="120" height="80" as="geometry"/>
                </mxCell>
                <mxCell id="44" value="Fin" style="ellipse;whiteSpace=wrap;html=1;fillColor=#008a00;fontColor=#ffffff;strokeColor=#005700;" vertex="1" parent="1">
                    <mxGeometry x="-700" y="1800" width="120" height="80" as="geometry"/>
                </mxCell>
                <mxCell id="45" value="" style="endArrow=classic;html=1;entryX=0.5;entryY=0;entryDx=0;entryDy=0;exitX=0.508;exitY=0.888;exitDx=0;exitDy=0;exitPerimeter=0;" edge="1" parent="1" source="43" target="44">
                    <mxGeometry width="50" height="50" relative="1" as="geometry">
                        <mxPoint x="-690" y="1820" as="sourcePoint"/>
                        <mxPoint x="-640" y="1770" as="targetPoint"/>
                    </mxGeometry>
                </mxCell>
                <mxCell id="46" value="" style="endArrow=classic;html=1;entryX=0.993;entryY=0.363;entryDx=0;entryDy=0;entryPerimeter=0;exitX=0.7;exitY=0.738;exitDx=0;exitDy=0;exitPerimeter=0;" edge="1" parent="1" source="34" target="39">
                    <mxGeometry width="50" height="50" relative="1" as="geometry">
                        <mxPoint x="-360" y="1500" as="sourcePoint"/>
                        <mxPoint x="-310" y="1450" as="targetPoint"/>
                        <Array as="points">
                            <mxPoint x="-400" y="1469"/>
                        </Array>
                    </mxGeometry>
                </mxCell>
                <mxCell id="47" value="" style="endArrow=classic;html=1;entryX=1;entryY=0.25;entryDx=0;entryDy=0;exitX=0.714;exitY=0.7;exitDx=0;exitDy=0;exitPerimeter=0;" edge="1" parent="1" source="31" target="34">
                    <mxGeometry width="50" height="50" relative="1" as="geometry">
                        <mxPoint x="-300" y="1360" as="sourcePoint"/>
                        <mxPoint x="-250" y="1310" as="targetPoint"/>
                        <Array as="points">
                            <mxPoint x="-280" y="1340"/>
                        </Array>
                    </mxGeometry>
                </mxCell>
                <mxCell id="48" value="" style="endArrow=classic;html=1;entryX=1.029;entryY=0.363;entryDx=0;entryDy=0;entryPerimeter=0;exitX=0.675;exitY=0.763;exitDx=0;exitDy=0;exitPerimeter=0;" edge="1" parent="1" source="27" target="31">
                    <mxGeometry width="50" height="50" relative="1" as="geometry">
                        <mxPoint x="-170" y="1150" as="sourcePoint"/>
                        <mxPoint x="-70" y="1030" as="targetPoint"/>
                        <Array as="points">
                            <mxPoint x="-160" y="1229"/>
                        </Array>
                    </mxGeometry>
                </mxCell>
                <mxCell id="49" value="" style="endArrow=classic;html=1;entryX=1;entryY=0.5;entryDx=0;entryDy=0;exitX=0.683;exitY=0.788;exitDx=0;exitDy=0;exitPerimeter=0;" edge="1" parent="1" source="23" target="27">
                    <mxGeometry width="50" height="50" relative="1" as="geometry">
                        <mxPoint x="-60" y="1110" as="sourcePoint"/>
                        <mxPoint x="-10" y="1060" as="targetPoint"/>
                        <Array as="points">
                            <mxPoint x="2" y="1120"/>
                        </Array>
                    </mxGeometry>
                </mxCell>
                <mxCell id="50" value="" style="endArrow=classic;html=1;entryX=1;entryY=0.375;entryDx=0;entryDy=0;entryPerimeter=0;exitX=0.667;exitY=0.725;exitDx=0;exitDy=0;exitPerimeter=0;" edge="1" parent="1" source="18" target="23">
                    <mxGeometry width="50" height="50" relative="1" as="geometry">
                        <mxPoint x="120" y="1020" as="sourcePoint"/>
                        <mxPoint x="170" y="970" as="targetPoint"/>
                        <Array as="points">
                            <mxPoint x="140" y="990"/>
                        </Array>
                    </mxGeometry>
                </mxCell>
                <mxCell id="51" value="" style="endArrow=classic;html=1;entryX=1;entryY=0.375;entryDx=0;entryDy=0;entryPerimeter=0;exitX=0.675;exitY=0.738;exitDx=0;exitDy=0;exitPerimeter=0;" edge="1" parent="1" source="15" target="18">
                    <mxGeometry width="50" height="50" relative="1" as="geometry">
                        <mxPoint x="240" y="870" as="sourcePoint"/>
                        <mxPoint x="290" y="820" as="targetPoint"/>
                        <Array as="points">
                            <mxPoint x="320" y="860"/>
                        </Array>
                    </mxGeometry>
                </mxCell>
                <mxCell id="53" value="" style="endArrow=classic;html=1;entryX=1.017;entryY=0.35;entryDx=0;entryDy=0;entryPerimeter=0;" edge="1" parent="1" target="15">
                    <mxGeometry width="50" height="50" relative="1" as="geometry">
                        <mxPoint x="520" y="660" as="sourcePoint"/>
                        <mxPoint x="460" y="770" as="targetPoint"/>
                        <Array as="points">
                            <mxPoint x="520" y="748"/>
                        </Array>
                    </mxGeometry>
                </mxCell>
            </root>
        </mxGraphModel>
    </diagram>
</mxfile>